<?xml version="1.0" encoding="us-ascii" standalone="no"?><svg xmlns="http://www.w3.org/2000/svg" xmlns:xlink="http://www.w3.org/1999/xlink" contentStyleType="text/css" height="954px" preserveAspectRatio="none" style="width:1294px;height:954px;background:#FFFFFF;" version="1.1" viewBox="0 0 1294 954" width="1294px" zoomAndPan="magnify"><defs/><g><!--cluster ScenarioData--><g id="cluster_ScenarioData"><path d="M8.5,35.202 L100.5,35.202 A3.75,3.75 0 0 1 103,37.702 L110,60.2699 L936.5,60.2699 A2.5,2.5 0 0 1 939,62.7699 L939,944.932 A2.5,2.5 0 0 1 936.5,947.432 L8.5,947.432 A2.5,2.5 0 0 1 6,944.932 L6,37.702 A2.5,2.5 0 0 1 8.5,35.202 " fill="none" style="stroke:#000000;stroke-width:1.5;"/><line style="stroke:#000000;stroke-width:1.5;" x1="6" x2="110" y1="60.2699" y2="60.2699"/><text fill="#000000" font-family="sans-serif" font-size="14" font-weight="bold" lengthAdjust="spacing" textLength="91" x="10" y="52.1679">ScenarioData</text></g><!--cluster ScenarioLoader--><g id="cluster_ScenarioLoader"><path d="M965.5,6.602 L1073.5,6.602 A3.75,3.75 0 0 1 1076,9.102 L1083,31.6699 L1284.5,31.6699 A2.5,2.5 0 0 1 1287,34.1699 L1287,258.642 A2.5,2.5 0 0 1 1284.5,261.142 L965.5,261.142 A2.5,2.5 0 0 1 963,258.642 L963,9.102 A2.5,2.5 0 0 1 965.5,6.602 " fill="none" style="stroke:#000000;stroke-width:1.5;"/><line style="stroke:#000000;stroke-width:1.5;" x1="963" x2="1083" y1="31.6699" y2="31.6699"/><text fill="#000000" font-family="sans-serif" font-size="14" font-weight="bold" lengthAdjust="spacing" textLength="107" x="967" y="23.5679">ScenarioLoader</text></g><!--class SensorConfigs--><g id="elem_SensorConfigs"><rect codeLine="3" fill="#F1F1F1" height="124.2717" id="SensorConfigs" rx="2.5" ry="2.5" style="stroke:#181818;stroke-width:0.5;" width="180" x="43" y="82.732"/><ellipse cx="80.95" cy="98.732" fill="#ADD1B2" rx="11" ry="11" style="stroke:#181818;stroke-width:1.0;"/><path d="M80.4188,105.6539 Q78.6688,105.6539 77.5281,104.9195 Q76.4031,104.1695 75.8406,102.8257 Q75.2938,101.4664 75.2938,99.6695 Q75.2938,97.6382 75.95,96.1851 Q76.6063,94.732 77.8875,93.9507 Q79.1688,93.1695 81.0438,93.1695 Q81.9344,93.1695 82.6063,93.357 Q83.2781,93.5289 83.9656,93.8726 L83.1531,95.8882 Q82.5281,95.5757 81.9813,95.4507 Q81.45,95.3257 80.9656,95.3257 Q79.7938,95.3257 79.0906,95.857 Q78.3875,96.3882 78.0906,97.3414 Q77.7938,98.2945 77.7938,99.5601 Q77.7938,101.5757 78.5125,102.5445 Q79.2313,103.4976 80.825,103.4976 Q81.4188,103.4976 82.0438,103.3414 Q82.6688,103.1851 83.4969,102.8101 L83.4969,105.0289 Q82.7625,105.3414 81.9656,105.4976 Q81.1844,105.6539 80.4188,105.6539 Z " fill="#000000"/><text fill="#000000" font-family="sans-serif" font-size="14" lengthAdjust="spacing" textLength="97" x="100.05" y="104.164">SensorConfigs</text><line style="stroke:#181818;stroke-width:0.5;" x1="44" x2="222" y1="114.732" y2="114.732"/><ellipse cx="54" cy="129.7659" fill="none" rx="3" ry="3" style="stroke:#038048;stroke-width:1.0;"/><text fill="#000000" font-family="sans-serif" font-size="14" lengthAdjust="spacing" textLength="129" x="63" y="133.6979">radar: RadarConfig</text><ellipse cx="54" cy="148.8339" fill="none" rx="3" ry="3" style="stroke:#038048;stroke-width:1.0;"/><text fill="#000000" font-family="sans-serif" font-size="14" lengthAdjust="spacing" textLength="154" x="63" y="152.7658">camera: CameraConfig</text><ellipse cx="54" cy="167.9018" fill="none" rx="3" ry="3" style="stroke:#038048;stroke-width:1.0;"/><text fill="#000000" font-family="sans-serif" font-size="14" lengthAdjust="spacing" textLength="93" x="63" y="171.8338">ais: AISConfig</text><ellipse cx="54" cy="186.9697" fill="none" rx="3" ry="3" style="stroke:#038048;stroke-width:1.0;"/><text fill="#000000" font-family="sans-serif" font-size="14" lengthAdjust="spacing" textLength="121" x="63" y="190.9017">gnss: GNSSConfig</text><line style="stroke:#181818;stroke-width:0.5;" x1="44" x2="222" y1="199.0036" y2="199.0036"/></g><!--class GroundTruths--><g id="elem_GroundTruths"><rect codeLine="10" fill="#F1F1F1" height="67.0679" id="GroundTruths" rx="2.5" ry="2.5" style="stroke:#181818;stroke-width:0.5;" width="267" x="257.5" y="111.332"/><ellipse cx="339.25" cy="127.332" fill="#ADD1B2" rx="11" ry="11" style="stroke:#181818;stroke-width:1.0;"/><path d="M338.7188,134.2539 Q336.9688,134.2539 335.8281,133.5195 Q334.7031,132.7695 334.1406,131.4257 Q333.5938,130.0664 333.5938,128.2695 Q333.5938,126.2382 334.25,124.7851 Q334.9063,123.332 336.1875,122.5507 Q337.4688,121.7695 339.3438,121.7695 Q340.2344,121.7695 340.9063,121.957 Q341.5781,122.1289 342.2656,122.4726 L341.4531,124.4882 Q340.8281,124.1757 340.2813,124.0507 Q339.75,123.9257 339.2656,123.9257 Q338.0938,123.9257 337.3906,124.457 Q336.6875,124.9882 336.3906,125.9414 Q336.0938,126.8945 336.0938,128.1601 Q336.0938,130.1757 336.8125,131.1445 Q337.5313,132.0976 339.125,132.0976 Q339.7188,132.0976 340.3438,131.9414 Q340.9688,131.7851 341.7969,131.4101 L341.7969,133.6289 Q341.0625,133.9414 340.2656,134.0976 Q339.4844,134.2539 338.7188,134.2539 Z " fill="#000000"/><text fill="#000000" font-family="sans-serif" font-size="14" lengthAdjust="spacing" textLength="95" x="359.75" y="132.764">GroundTruths</text><line style="stroke:#181818;stroke-width:0.5;" x1="258.5" x2="523.5" y1="143.332" y2="143.332"/><text fill="#000000" font-family="sans-serif" font-size="14" lengthAdjust="spacing" textLength="255" x="263.5" y="162.2979">ground_truths: Dict[int, GroundTruth]</text><line style="stroke:#181818;stroke-width:0.5;" x1="258.5" x2="523.5" y1="170.3999" y2="170.3999"/></g><!--class GroundTruth--><g id="elem_GroundTruth"><rect codeLine="14" fill="#F1F1F1" height="143.3396" id="GroundTruth" rx="2.5" ry="2.5" style="stroke:#181818;stroke-width:0.5;" width="142" x="559" y="73.202"/><ellipse cx="583.9" cy="89.202" fill="#ADD1B2" rx="11" ry="11" style="stroke:#181818;stroke-width:1.0;"/><path d="M583.3688,96.1239 Q581.6188,96.1239 580.4781,95.3895 Q579.3531,94.6395 578.7906,93.2957 Q578.2438,91.9364 578.2438,90.1395 Q578.2438,88.1082 578.9,86.6551 Q579.5563,85.202 580.8375,84.4207 Q582.1188,83.6395 583.9938,83.6395 Q584.8844,83.6395 585.5563,83.827 Q586.2281,83.9989 586.9156,84.3426 L586.1031,86.3582 Q585.4781,86.0457 584.9313,85.9207 Q584.4,85.7957 583.9156,85.7957 Q582.7438,85.7957 582.0406,86.327 Q581.3375,86.8582 581.0406,87.8114 Q580.7438,88.7645 580.7438,90.0301 Q580.7438,92.0457 581.4625,93.0145 Q582.1813,93.9676 583.775,93.9676 Q584.3688,93.9676 584.9938,93.8114 Q585.6188,93.6551 586.4469,93.2801 L586.4469,95.4989 Q585.7125,95.8114 584.9156,95.9676 Q584.1344,96.1239 583.3688,96.1239 Z " fill="#000000"/><text fill="#000000" font-family="sans-serif" font-size="14" lengthAdjust="spacing" textLength="88" x="600.1" y="94.634">GroundTruth</text><line style="stroke:#181818;stroke-width:0.5;" x1="560" x2="700" y1="105.202" y2="105.202"/><ellipse cx="570" cy="120.2359" fill="none" rx="3" ry="3" style="stroke:#038048;stroke-width:1.0;"/><text fill="#000000" font-family="sans-serif" font-size="14" lengthAdjust="spacing" textLength="116" x="579" y="124.1679">time_stamp: float</text><ellipse cx="570" cy="139.3039" fill="none" rx="3" ry="3" style="stroke:#038048;stroke-width:1.0;"/><text fill="#000000" font-family="sans-serif" font-size="14" lengthAdjust="spacing" textLength="107" x="579" y="143.2358">p_north: double</text><ellipse cx="570" cy="158.3718" fill="none" rx="3" ry="3" style="stroke:#038048;stroke-width:1.0;"/><text fill="#000000" font-family="sans-serif" font-size="14" lengthAdjust="spacing" textLength="98" x="579" y="162.3038">p_east: double</text><ellipse cx="570" cy="177.4397" fill="none" rx="3" ry="3" style="stroke:#038048;stroke-width:1.0;"/><text fill="#000000" font-family="sans-serif" font-size="14" lengthAdjust="spacing" textLength="105" x="579" y="181.3717">v_north: double</text><ellipse cx="570" cy="196.5076" fill="none" rx="3" ry="3" style="stroke:#038048;stroke-width:1.0;"/><text fill="#000000" font-family="sans-serif" font-size="14" lengthAdjust="spacing" textLength="96" x="579" y="200.4396">v_east: double</text><line style="stroke:#181818;stroke-width:0.5;" x1="560" x2="700" y1="208.5416" y2="208.5416"/></g><!--class VesselPosition--><g id="elem_VesselPosition"><rect codeLine="22" fill="#F1F1F1" height="105.2038" id="VesselPosition" rx="2.5" ry="2.5" style="stroke:#181818;stroke-width:0.5;" width="142" x="736" y="92.272"/><ellipse cx="757.75" cy="108.272" fill="#ADD1B2" rx="11" ry="11" style="stroke:#181818;stroke-width:1.0;"/><path d="M757.2188,115.1939 Q755.4688,115.1939 754.3281,114.4595 Q753.2031,113.7095 752.6406,112.3657 Q752.0938,111.0064 752.0938,109.2095 Q752.0938,107.1782 752.75,105.7251 Q753.4063,104.272 754.6875,103.4907 Q755.9688,102.7095 757.8438,102.7095 Q758.7344,102.7095 759.4063,102.897 Q760.0781,103.0689 760.7656,103.4126 L759.9531,105.4282 Q759.3281,105.1157 758.7813,104.9907 Q758.25,104.8657 757.7656,104.8657 Q756.5938,104.8657 755.8906,105.397 Q755.1875,105.9282 754.8906,106.8814 Q754.5938,107.8345 754.5938,109.1001 Q754.5938,111.1157 755.3125,112.0845 Q756.0313,113.0376 757.625,113.0376 Q758.2188,113.0376 758.8438,112.8814 Q759.4688,112.7251 760.2969,112.3501 L760.2969,114.5689 Q759.5625,114.8814 758.7656,115.0376 Q757.9844,115.1939 757.2188,115.1939 Z " fill="#000000"/><text fill="#000000" font-family="sans-serif" font-size="14" lengthAdjust="spacing" textLength="95" x="773.25" y="113.704">VesselPosition</text><line style="stroke:#181818;stroke-width:0.5;" x1="737" x2="877" y1="124.272" y2="124.272"/><ellipse cx="747" cy="139.3059" fill="none" rx="3" ry="3" style="stroke:#038048;stroke-width:1.0;"/><text fill="#000000" font-family="sans-serif" font-size="14" lengthAdjust="spacing" textLength="116" x="756" y="143.2379">time_stamp: float</text><ellipse cx="747" cy="158.3739" fill="none" rx="3" ry="3" style="stroke:#038048;stroke-width:1.0;"/><text fill="#000000" font-family="sans-serif" font-size="14" lengthAdjust="spacing" textLength="107" x="756" y="162.3058">p_north: double</text><ellipse cx="747" cy="177.4418" fill="none" rx="3" ry="3" style="stroke:#038048;stroke-width:1.0;"/><text fill="#000000" font-family="sans-serif" font-size="14" lengthAdjust="spacing" textLength="98" x="756" y="181.3738">p_east: double</text><line style="stroke:#181818;stroke-width:0.5;" x1="737" x2="877" y1="189.4757" y2="189.4757"/></g><!--class VesselPositions--><g id="elem_VesselPositions"><rect codeLine="28" fill="#F1F1F1" height="67.0679" id="VesselPositions" rx="2.5" ry="2.5" style="stroke:#181818;stroke-width:0.5;" width="223" x="21.5" y="381.412"/><ellipse cx="77.75" cy="397.412" fill="#ADD1B2" rx="11" ry="11" style="stroke:#181818;stroke-width:1.0;"/><path d="M77.2188,404.3339 Q75.4688,404.3339 74.3281,403.5995 Q73.2031,402.8495 72.6406,401.5057 Q72.0938,400.1464 72.0938,398.3495 Q72.0938,396.3182 72.75,394.8651 Q73.4063,393.412 74.6875,392.6307 Q75.9688,391.8495 77.8438,391.8495 Q78.7344,391.8495 79.4063,392.037 Q80.0781,392.2089 80.7656,392.5526 L79.9531,394.5682 Q79.3281,394.2557 78.7813,394.1307 Q78.25,394.0057 77.7656,394.0057 Q76.5938,394.0057 75.8906,394.537 Q75.1875,395.0682 74.8906,396.0214 Q74.5938,396.9745 74.5938,398.2401 Q74.5938,400.2557 75.3125,401.2245 Q76.0313,402.1776 77.625,402.1776 Q78.2188,402.1776 78.8438,402.0214 Q79.4688,401.8651 80.2969,401.4901 L80.2969,403.7089 Q79.5625,404.0214 78.7656,404.1776 Q77.9844,404.3339 77.2188,404.3339 Z " fill="#000000"/><text fill="#000000" font-family="sans-serif" font-size="14" lengthAdjust="spacing" textLength="102" x="98.25" y="402.844">VesselPositions</text><line style="stroke:#181818;stroke-width:0.5;" x1="22.5" x2="243.5" y1="413.412" y2="413.412"/><ellipse cx="32.5" cy="428.4459" fill="none" rx="3" ry="3" style="stroke:#038048;stroke-width:1.0;"/><text fill="#000000" font-family="sans-serif" font-size="14" lengthAdjust="spacing" textLength="197" x="41.5" y="432.3779">positions: List[VesselPosition]</text><line style="stroke:#181818;stroke-width:0.5;" x1="22.5" x2="243.5" y1="440.4799" y2="440.4799"/></g><!--class RadarConfig--><g id="elem_RadarConfig"><rect codeLine="32" fill="#F1F1F1" height="200.5433" id="RadarConfig" rx="2.5" ry="2.5" style="stroke:#181818;stroke-width:0.5;" width="165" x="279.5" y="314.672"/><ellipse cx="316.55" cy="330.672" fill="#ADD1B2" rx="11" ry="11" style="stroke:#181818;stroke-width:1.0;"/><path d="M316.0188,337.5939 Q314.2688,337.5939 313.1281,336.8595 Q312.0031,336.1095 311.4406,334.7657 Q310.8938,333.4064 310.8938,331.6095 Q310.8938,329.5782 311.55,328.1251 Q312.2063,326.672 313.4875,325.8907 Q314.7688,325.1095 316.6438,325.1095 Q317.5344,325.1095 318.2063,325.297 Q318.8781,325.4689 319.5656,325.8126 L318.7531,327.8282 Q318.1281,327.5157 317.5813,327.3907 Q317.05,327.2657 316.5656,327.2657 Q315.3938,327.2657 314.6906,327.797 Q313.9875,328.3282 313.6906,329.2814 Q313.3938,330.2345 313.3938,331.5001 Q313.3938,333.5157 314.1125,334.4845 Q314.8313,335.4376 316.425,335.4376 Q317.0188,335.4376 317.6438,335.2814 Q318.2688,335.1251 319.0969,334.7501 L319.0969,336.9689 Q318.3625,337.2814 317.5656,337.4376 Q316.7844,337.5939 316.0188,337.5939 Z " fill="#000000"/><text fill="#000000" font-family="sans-serif" font-size="14" lengthAdjust="spacing" textLength="84" x="335.45" y="336.104">RadarConfig</text><line style="stroke:#181818;stroke-width:0.5;" x1="280.5" x2="443.5" y1="346.672" y2="346.672"/><ellipse cx="290.5" cy="361.7059" fill="none" rx="3" ry="3" style="stroke:#038048;stroke-width:1.0;"/><text fill="#000000" font-family="sans-serif" font-size="14" lengthAdjust="spacing" textLength="112" x="299.5" y="365.6379">pos_ned: float[2]</text><ellipse cx="290.5" cy="380.7739" fill="none" rx="3" ry="3" style="stroke:#038048;stroke-width:1.0;"/><text fill="#000000" font-family="sans-serif" font-size="14" lengthAdjust="spacing" textLength="97" x="299.5" y="384.7058">range_m: float</text><ellipse cx="290.5" cy="399.8418" fill="none" rx="3" ry="3" style="stroke:#038048;stroke-width:1.0;"/><text fill="#000000" font-family="sans-serif" font-size="14" lengthAdjust="spacing" textLength="78" x="299.5" y="403.7738">fov_deg: int</text><ellipse cx="290.5" cy="418.9097" fill="none" rx="3" ry="3" style="stroke:#038048;stroke-width:1.0;"/><text fill="#000000" font-family="sans-serif" font-size="14" lengthAdjust="spacing" textLength="87" x="299.5" y="422.8417">rate_hz: float</text><ellipse cx="290.5" cy="437.9776" fill="none" rx="3" ry="3" style="stroke:#038048;stroke-width:1.0;"/><text fill="#000000" font-family="sans-serif" font-size="14" lengthAdjust="spacing" textLength="110" x="299.5" y="441.9096">sigma_r_m: float</text><ellipse cx="290.5" cy="457.0455" fill="none" rx="3" ry="3" style="stroke:#038048;stroke-width:1.0;"/><text fill="#000000" font-family="sans-serif" font-size="14" lengthAdjust="spacing" textLength="139" x="299.5" y="460.9775">sigma_phi_deg: float</text><ellipse cx="290.5" cy="476.1134" fill="none" rx="3" ry="3" style="stroke:#038048;stroke-width:1.0;"/><text fill="#000000" font-family="sans-serif" font-size="14" lengthAdjust="spacing" textLength="56" x="299.5" y="480.0454">pd: float</text><ellipse cx="290.5" cy="495.1814" fill="none" rx="3" ry="3" style="stroke:#038048;stroke-width:1.0;"/><text fill="#000000" font-family="sans-serif" font-size="14" lengthAdjust="spacing" textLength="108" x="299.5" y="499.1133">lambda_fa: float</text><line style="stroke:#181818;stroke-width:0.5;" x1="280.5" x2="443.5" y1="507.2153" y2="507.2153"/></g><!--class CameraConfig--><g id="elem_CameraConfig"><rect codeLine="43" fill="#F1F1F1" height="219.6113" id="CameraConfig" rx="2.5" ry="2.5" style="stroke:#181818;stroke-width:0.5;" width="165" x="479.5" y="305.142"/><ellipse cx="511.15" cy="321.142" fill="#ADD1B2" rx="11" ry="11" style="stroke:#181818;stroke-width:1.0;"/><path d="M510.6188,328.0639 Q508.8688,328.0639 507.7281,327.3295 Q506.6031,326.5795 506.0406,325.2357 Q505.4938,323.8764 505.4938,322.0795 Q505.4938,320.0482 506.15,318.5951 Q506.8063,317.142 508.0875,316.3607 Q509.3688,315.5795 511.2438,315.5795 Q512.1344,315.5795 512.8063,315.767 Q513.4781,315.9389 514.1656,316.2826 L513.3531,318.2982 Q512.7281,317.9857 512.1813,317.8607 Q511.65,317.7357 511.1656,317.7357 Q509.9938,317.7357 509.2906,318.267 Q508.5875,318.7982 508.2906,319.7514 Q507.9938,320.7045 507.9938,321.9701 Q507.9938,323.9857 508.7125,324.9545 Q509.4313,325.9076 511.025,325.9076 Q511.6188,325.9076 512.2438,325.7514 Q512.8688,325.5951 513.6969,325.2201 L513.6969,327.4389 Q512.9625,327.7514 512.1656,327.9076 Q511.3844,328.0639 510.6188,328.0639 Z " fill="#000000"/><text fill="#000000" font-family="sans-serif" font-size="14" lengthAdjust="spacing" textLength="96" x="528.85" y="326.574">CameraConfig</text><line style="stroke:#181818;stroke-width:0.5;" x1="480.5" x2="643.5" y1="337.142" y2="337.142"/><ellipse cx="490.5" cy="352.1759" fill="none" rx="3" ry="3" style="stroke:#038048;stroke-width:1.0;"/><text fill="#000000" font-family="sans-serif" font-size="14" lengthAdjust="spacing" textLength="112" x="499.5" y="356.1079">pos_ned: float[2]</text><ellipse cx="490.5" cy="371.2439" fill="none" rx="3" ry="3" style="stroke:#038048;stroke-width:1.0;"/><text fill="#000000" font-family="sans-serif" font-size="14" lengthAdjust="spacing" textLength="135" x="499.5" y="375.1758">boresight_deg: float</text><ellipse cx="490.5" cy="390.3118" fill="none" rx="3" ry="3" style="stroke:#038048;stroke-width:1.0;"/><text fill="#000000" font-family="sans-serif" font-size="14" lengthAdjust="spacing" textLength="97" x="499.5" y="394.2438">range_m: float</text><ellipse cx="490.5" cy="409.3797" fill="none" rx="3" ry="3" style="stroke:#038048;stroke-width:1.0;"/><text fill="#000000" font-family="sans-serif" font-size="14" lengthAdjust="spacing" textLength="78" x="499.5" y="413.3117">fov_deg: int</text><ellipse cx="490.5" cy="428.4476" fill="none" rx="3" ry="3" style="stroke:#038048;stroke-width:1.0;"/><text fill="#000000" font-family="sans-serif" font-size="14" lengthAdjust="spacing" textLength="87" x="499.5" y="432.3796">rate_hz: float</text><ellipse cx="490.5" cy="447.5155" fill="none" rx="3" ry="3" style="stroke:#038048;stroke-width:1.0;"/><text fill="#000000" font-family="sans-serif" font-size="14" lengthAdjust="spacing" textLength="110" x="499.5" y="451.4475">sigma_r_m: float</text><ellipse cx="490.5" cy="466.5834" fill="none" rx="3" ry="3" style="stroke:#038048;stroke-width:1.0;"/><text fill="#000000" font-family="sans-serif" font-size="14" lengthAdjust="spacing" textLength="139" x="499.5" y="470.5154">sigma_phi_deg: float</text><ellipse cx="490.5" cy="485.6514" fill="none" rx="3" ry="3" style="stroke:#038048;stroke-width:1.0;"/><text fill="#000000" font-family="sans-serif" font-size="14" lengthAdjust="spacing" textLength="56" x="499.5" y="489.5833">pd: float</text><ellipse cx="490.5" cy="504.7193" fill="none" rx="3" ry="3" style="stroke:#038048;stroke-width:1.0;"/><text fill="#000000" font-family="sans-serif" font-size="14" lengthAdjust="spacing" textLength="108" x="499.5" y="508.6513">lambda_fa: float</text><line style="stroke:#181818;stroke-width:0.5;" x1="480.5" x2="643.5" y1="516.7532" y2="516.7532"/></g><!--class AISConfig--><g id="elem_AISConfig"><rect codeLine="55" fill="#F1F1F1" height="124.2717" id="AISConfig" rx="2.5" ry="2.5" style="stroke:#181818;stroke-width:0.5;" width="154" x="680" y="352.812"/><ellipse cx="720.2" cy="368.812" fill="#ADD1B2" rx="11" ry="11" style="stroke:#181818;stroke-width:1.0;"/><path d="M719.6688,375.7339 Q717.9188,375.7339 716.7781,374.9995 Q715.6531,374.2495 715.0906,372.9057 Q714.5438,371.5464 714.5438,369.7495 Q714.5438,367.7182 715.2,366.2651 Q715.8563,364.812 717.1375,364.0307 Q718.4188,363.2495 720.2938,363.2495 Q721.1844,363.2495 721.8563,363.437 Q722.5281,363.6089 723.2156,363.9526 L722.4031,365.9682 Q721.7781,365.6557 721.2313,365.5307 Q720.7,365.4057 720.2156,365.4057 Q719.0438,365.4057 718.3406,365.937 Q717.6375,366.4682 717.3406,367.4214 Q717.0438,368.3745 717.0438,369.6401 Q717.0438,371.6557 717.7625,372.6245 Q718.4813,373.5776 720.075,373.5776 Q720.6688,373.5776 721.2938,373.4214 Q721.9188,373.2651 722.7469,372.8901 L722.7469,375.1089 Q722.0125,375.4214 721.2156,375.5776 Q720.4344,375.7339 719.6688,375.7339 Z " fill="#000000"/><text fill="#000000" font-family="sans-serif" font-size="14" lengthAdjust="spacing" textLength="66" x="739.8" y="374.244">AISConfig</text><line style="stroke:#181818;stroke-width:0.5;" x1="681" x2="833" y1="384.812" y2="384.812"/><ellipse cx="691" cy="399.8459" fill="none" rx="3" ry="3" style="stroke:#038048;stroke-width:1.0;"/><text fill="#000000" font-family="sans-serif" font-size="14" lengthAdjust="spacing" textLength="97" x="700" y="403.7779">range_m: float</text><ellipse cx="691" cy="418.9139" fill="none" rx="3" ry="3" style="stroke:#038048;stroke-width:1.0;"/><text fill="#000000" font-family="sans-serif" font-size="14" lengthAdjust="spacing" textLength="102" x="700" y="422.8458">interval_s: float</text><ellipse cx="691" cy="437.9818" fill="none" rx="3" ry="3" style="stroke:#038048;stroke-width:1.0;"/><text fill="#000000" font-family="sans-serif" font-size="14" lengthAdjust="spacing" textLength="128" x="700" y="441.9138">sigma_pos_m: float</text><ellipse cx="691" cy="457.0497" fill="none" rx="3" ry="3" style="stroke:#038048;stroke-width:1.0;"/><text fill="#000000" font-family="sans-serif" font-size="14" lengthAdjust="spacing" textLength="56" x="700" y="460.9817">pd: float</text><line style="stroke:#181818;stroke-width:0.5;" x1="681" x2="833" y1="469.0836" y2="469.0836"/></g><!--class GNSSConfig--><g id="elem_GNSSConfig"><rect codeLine="62" fill="#F1F1F1" height="86.1358" id="GNSSConfig" rx="2.5" ry="2.5" style="stroke:#181818;stroke-width:0.5;" width="154" x="22" y="651.492"/><ellipse cx="55.45" cy="667.492" fill="#ADD1B2" rx="11" ry="11" style="stroke:#181818;stroke-width:1.0;"/><path d="M54.9188,674.4139 Q53.1688,674.4139 52.0281,673.6795 Q50.9031,672.9295 50.3406,671.5857 Q49.7938,670.2264 49.7938,668.4295 Q49.7938,666.3982 50.45,664.9451 Q51.1063,663.492 52.3875,662.7107 Q53.6688,661.9295 55.5438,661.9295 Q56.4344,661.9295 57.1063,662.117 Q57.7781,662.2889 58.4656,662.6326 L57.6531,664.6482 Q57.0281,664.3357 56.4813,664.2107 Q55.95,664.0857 55.4656,664.0857 Q54.2938,664.0857 53.5906,664.617 Q52.8875,665.1482 52.5906,666.1014 Q52.2938,667.0545 52.2938,668.3201 Q52.2938,670.3357 53.0125,671.3045 Q53.7313,672.2576 55.325,672.2576 Q55.9188,672.2576 56.5438,672.1014 Q57.1688,671.9451 57.9969,671.5701 L57.9969,673.7889 Q57.2625,674.1014 56.4656,674.2576 Q55.6844,674.4139 54.9188,674.4139 Z " fill="#000000"/><text fill="#000000" font-family="sans-serif" font-size="14" lengthAdjust="spacing" textLength="81" x="73.55" y="672.924">GNSSConfig</text><line style="stroke:#181818;stroke-width:0.5;" x1="23" x2="175" y1="683.492" y2="683.492"/><ellipse cx="33" cy="698.5259" fill="none" rx="3" ry="3" style="stroke:#038048;stroke-width:1.0;"/><text fill="#000000" font-family="sans-serif" font-size="14" lengthAdjust="spacing" textLength="128" x="42" y="702.4579">sigma_pos_m: float</text><ellipse cx="33" cy="717.5939" fill="none" rx="3" ry="3" style="stroke:#038048;stroke-width:1.0;"/><text fill="#000000" font-family="sans-serif" font-size="14" lengthAdjust="spacing" textLength="87" x="42" y="721.5258">rate_hz: float</text><line style="stroke:#181818;stroke-width:0.5;" x1="23" x2="175" y1="729.6278" y2="729.6278"/></g><!--class SensorId--><g id="elem_SensorId"><rect codeLine="67" fill="#F1F1F1" height="124.2717" id="SensorId" rx="2.5" ry="2.5" style="stroke:#181818;stroke-width:0.5;" width="92" x="211" y="632.422"/><ellipse cx="226" cy="648.422" fill="#EB937F" rx="11" ry="11" style="stroke:#181818;stroke-width:1.0;"/><path d="M222.3594,654.922 L222.3594,642.7814 L230.0156,642.7814 L230.0156,644.9064 L224.7344,644.9064 L224.7344,647.5626 L229.75,647.5626 L229.75,649.6876 L224.7344,649.6876 L224.7344,652.797 L230.0156,652.797 L230.0156,654.922 L222.3594,654.922 Z " fill="#000000"/><text fill="#000000" font-family="sans-serif" font-size="14" lengthAdjust="spacing" textLength="60" x="240" y="653.854">SensorId</text><line style="stroke:#181818;stroke-width:0.5;" x1="212" x2="302" y1="664.422" y2="664.422"/><text fill="#000000" font-family="sans-serif" font-size="14" lengthAdjust="spacing" textLength="37" x="217" y="683.3879">radar</text><text fill="#000000" font-family="sans-serif" font-size="14" lengthAdjust="spacing" textLength="50" x="217" y="702.4558">camera</text><text fill="#000000" font-family="sans-serif" font-size="14" lengthAdjust="spacing" textLength="19" x="217" y="721.5238">ais</text><text fill="#000000" font-family="sans-serif" font-size="14" lengthAdjust="spacing" textLength="32" x="217" y="740.5917">gnss</text><line style="stroke:#181818;stroke-width:0.5;" x1="212" x2="302" y1="748.6936" y2="748.6936"/></g><!--class SimulationOutput--><g id="elem_SimulationOutput"><rect codeLine="74" fill="#F1F1F1" height="219.6113" id="SimulationOutput" rx="2.5" ry="2.5" style="stroke:#181818;stroke-width:0.5;" width="286" x="338" y="584.752"/><ellipse cx="416.75" cy="600.752" fill="#ADD1B2" rx="11" ry="11" style="stroke:#181818;stroke-width:1.0;"/><path d="M416.2188,607.6739 Q414.4688,607.6739 413.3281,606.9395 Q412.2031,606.1895 411.6406,604.8457 Q411.0938,603.4864 411.0938,601.6895 Q411.0938,599.6582 411.75,598.2051 Q412.4063,596.752 413.6875,595.9707 Q414.9688,595.1895 416.8438,595.1895 Q417.7344,595.1895 418.4063,595.377 Q419.0781,595.5489 419.7656,595.8926 L418.9531,597.9082 Q418.3281,597.5957 417.7813,597.4707 Q417.25,597.3457 416.7656,597.3457 Q415.5938,597.3457 414.8906,597.877 Q414.1875,598.4082 413.8906,599.3614 Q413.5938,600.3145 413.5938,601.5801 Q413.5938,603.5957 414.3125,604.5645 Q415.0313,605.5176 416.625,605.5176 Q417.2188,605.5176 417.8438,605.3614 Q418.4688,605.2051 419.2969,604.8301 L419.2969,607.0489 Q418.5625,607.3614 417.7656,607.5176 Q416.9844,607.6739 416.2188,607.6739 Z " fill="#000000"/><text fill="#000000" font-family="sans-serif" font-size="14" lengthAdjust="spacing" textLength="120" x="437.25" y="606.184">SimulationOutput</text><line style="stroke:#181818;stroke-width:0.5;" x1="339" x2="623" y1="616.752" y2="616.752"/><ellipse cx="349" cy="631.7859" fill="none" rx="3" ry="3" style="stroke:#038048;stroke-width:1.0;"/><text fill="#000000" font-family="sans-serif" font-size="14" lengthAdjust="spacing" textLength="147" x="358" y="635.7179">scenario_name     : str</text><ellipse cx="349" cy="650.8539" fill="none" rx="3" ry="3" style="stroke:#038048;stroke-width:1.0;"/><text fill="#000000" font-family="sans-serif" font-size="14" lengthAdjust="spacing" textLength="130" x="358" y="654.7858">dt_true           : float</text><ellipse cx="349" cy="669.9218" fill="none" rx="3" ry="3" style="stroke:#038048;stroke-width:1.0;"/><text fill="#000000" font-family="sans-serif" font-size="14" lengthAdjust="spacing" textLength="127" x="358" y="673.8538">t_end             : float</text><ellipse cx="349" cy="688.9897" fill="none" rx="3" ry="3" style="stroke:#038048;stroke-width:1.0;"/><text fill="#000000" font-family="sans-serif" font-size="14" lengthAdjust="spacing" textLength="259" x="358" y="692.9217">ground_truth      : Dict[int, np.ndarray]</text><ellipse cx="349" cy="708.0576" fill="none" rx="3" ry="3" style="stroke:#038048;stroke-width:1.0;"/><text fill="#000000" font-family="sans-serif" font-size="14" lengthAdjust="spacing" textLength="216" x="358" y="711.9896">ground_truth_times: np.ndarray</text><ellipse cx="349" cy="727.1255" fill="none" rx="3" ry="3" style="stroke:#038048;stroke-width:1.0;"/><text fill="#000000" font-family="sans-serif" font-size="14" lengthAdjust="spacing" textLength="260" x="358" y="731.0575">measurements      : List[Measurement]</text><ellipse cx="349" cy="746.1934" fill="none" rx="3" ry="3" style="stroke:#038048;stroke-width:1.0;"/><text fill="#000000" font-family="sans-serif" font-size="14" lengthAdjust="spacing" textLength="199" x="358" y="750.1254">vessel_positions  : np.ndarray</text><ellipse cx="349" cy="765.2614" fill="none" rx="3" ry="3" style="stroke:#038048;stroke-width:1.0;"/><text fill="#000000" font-family="sans-serif" font-size="14" lengthAdjust="spacing" textLength="191" x="358" y="769.1933">vessel_times      : np.ndarray</text><ellipse cx="349" cy="784.3293" fill="none" rx="3" ry="3" style="stroke:#038048;stroke-width:1.0;"/><text fill="#000000" font-family="sans-serif" font-size="14" lengthAdjust="spacing" textLength="150" x="358" y="788.2613">sensor_configs    : Dict</text><line style="stroke:#181818;stroke-width:0.5;" x1="339" x2="623" y1="796.3632" y2="796.3632"/></g><!--class Measurement--><g id="elem_Measurement"><rect codeLine="86" fill="#F1F1F1" height="200.5433" id="Measurement" rx="2.5" ry="2.5" style="stroke:#181818;stroke-width:0.5;" width="264" x="659" y="594.282"/><ellipse cx="739.75" cy="610.282" fill="#ADD1B2" rx="11" ry="11" style="stroke:#181818;stroke-width:1.0;"/><path d="M739.2188,617.2039 Q737.4688,617.2039 736.3281,616.4695 Q735.2031,615.7195 734.6406,614.3757 Q734.0938,613.0164 734.0938,611.2195 Q734.0938,609.1882 734.75,607.7351 Q735.4063,606.282 736.6875,605.5007 Q737.9688,604.7195 739.8438,604.7195 Q740.7344,604.7195 741.4063,604.907 Q742.0781,605.0789 742.7656,605.4226 L741.9531,607.4382 Q741.3281,607.1257 740.7813,607.0007 Q740.25,606.8757 739.7656,606.8757 Q738.5938,606.8757 737.8906,607.407 Q737.1875,607.9382 736.8906,608.8914 Q736.5938,609.8445 736.5938,611.1101 Q736.5938,613.1257 737.3125,614.0945 Q738.0313,615.0476 739.625,615.0476 Q740.2188,615.0476 740.8438,614.8914 Q741.4688,614.7351 742.2969,614.3601 L742.2969,616.5789 Q741.5625,616.8914 740.7656,617.0476 Q739.9844,617.2039 739.2188,617.2039 Z " fill="#000000"/><text fill="#000000" font-family="sans-serif" font-size="14" lengthAdjust="spacing" textLength="94" x="760.25" y="615.714">Measurement</text><line style="stroke:#181818;stroke-width:0.5;" x1="660" x2="922" y1="626.282" y2="626.282"/><text fill="#000000" font-family="sans-serif" font-size="14" lengthAdjust="spacing" textLength="110" x="665" y="645.2479">sensor_id     : str</text><text fill="#000000" font-family="sans-serif" font-size="14" lengthAdjust="spacing" textLength="108" x="665" y="664.3158">time          : float</text><text fill="#000000" font-family="sans-serif" font-size="14" lengthAdjust="spacing" textLength="131" x="665" y="683.3838">is_false_alarm: bool</text><text fill="#000000" font-family="sans-serif" font-size="14" lengthAdjust="spacing" textLength="106" x="665" y="702.4517">target_id     : int</text><text fill="#000000" font-family="sans-serif" font-size="14" lengthAdjust="spacing" textLength="245" x="665" y="721.5196">range_m       : Optional[float] = None</text><text fill="#000000" font-family="sans-serif" font-size="14" lengthAdjust="spacing" textLength="252" x="665" y="740.5875">bearing_rad   : Optional[float] = None</text><text fill="#000000" font-family="sans-serif" font-size="14" lengthAdjust="spacing" textLength="242" x="665" y="759.6554">north_m       : Optional[float] = None</text><text fill="#000000" font-family="sans-serif" font-size="14" lengthAdjust="spacing" textLength="237" x="665" y="778.7233">east_m        : Optional[float] = None</text><line style="stroke:#181818;stroke-width:0.5;" x1="660" x2="922" y1="786.8253" y2="786.8253"/></g><!--class Measurements--><g id="elem_Measurements"><rect codeLine="97" fill="#F1F1F1" height="67.0679" id="Measurements" rx="2.5" ry="2.5" style="stroke:#181818;stroke-width:0.5;" width="262" x="22" y="864.362"/><ellipse cx="98.25" cy="880.362" fill="#ADD1B2" rx="11" ry="11" style="stroke:#181818;stroke-width:1.0;"/><path d="M97.7188,887.2839 Q95.9688,887.2839 94.8281,886.5495 Q93.7031,885.7995 93.1406,884.4557 Q92.5938,883.0964 92.5938,881.2995 Q92.5938,879.2682 93.25,877.8151 Q93.9063,876.362 95.1875,875.5807 Q96.4688,874.7995 98.3438,874.7995 Q99.2344,874.7995 99.9063,874.987 Q100.5781,875.1589 101.2656,875.5026 L100.4531,877.5182 Q99.8281,877.2057 99.2813,877.0807 Q98.75,876.9557 98.2656,876.9557 Q97.0938,876.9557 96.3906,877.487 Q95.6875,878.0182 95.3906,878.9714 Q95.0938,879.9245 95.0938,881.1901 Q95.0938,883.2057 95.8125,884.1745 Q96.5313,885.1276 98.125,885.1276 Q98.7188,885.1276 99.3438,884.9714 Q99.9688,884.8151 100.7969,884.4401 L100.7969,886.6589 Q100.0625,886.9714 99.2656,887.1276 Q98.4844,887.2839 97.7188,887.2839 Z " fill="#000000"/><text fill="#000000" font-family="sans-serif" font-size="14" lengthAdjust="spacing" textLength="101" x="118.75" y="885.794">Measurements</text><line style="stroke:#181818;stroke-width:0.5;" x1="23" x2="283" y1="896.362" y2="896.362"/><ellipse cx="33" cy="911.3959" fill="none" rx="3" ry="3" style="stroke:#038048;stroke-width:1.0;"/><text fill="#000000" font-family="sans-serif" font-size="14" lengthAdjust="spacing" textLength="236" x="42" y="915.3279">measurements: List[Measurement]</text><line style="stroke:#181818;stroke-width:0.5;" x1="23" x2="283" y1="923.4299" y2="923.4299"/></g><!--class ScenarioLoader--><g id="elem_ScenarioLoader"><rect codeLine="103" fill="#F1F1F1" height="200.5433" id="ScenarioLoader" rx="2.5" ry="2.5" style="stroke:#181818;stroke-width:0.5;" width="293" x="978.5" y="44.602"/><ellipse cx="1068.75" cy="60.602" fill="#ADD1B2" rx="11" ry="11" style="stroke:#181818;stroke-width:1.0;"/><path d="M1068.2188,67.5239 Q1066.4688,67.5239 1065.3281,66.7895 Q1064.2031,66.0395 1063.6406,64.6957 Q1063.0938,63.3364 1063.0938,61.5395 Q1063.0938,59.5082 1063.75,58.0551 Q1064.4063,56.602 1065.6875,55.8207 Q1066.9688,55.0395 1068.8438,55.0395 Q1069.7344,55.0395 1070.4063,55.227 Q1071.0781,55.3989 1071.7656,55.7426 L1070.9531,57.7582 Q1070.3281,57.4457 1069.7813,57.3207 Q1069.25,57.1957 1068.7656,57.1957 Q1067.5938,57.1957 1066.8906,57.727 Q1066.1875,58.2582 1065.8906,59.2114 Q1065.5938,60.1645 1065.5938,61.4301 Q1065.5938,63.4457 1066.3125,64.4145 Q1067.0313,65.3676 1068.625,65.3676 Q1069.2188,65.3676 1069.8438,65.2114 Q1070.4688,65.0551 1071.2969,64.6801 L1071.2969,66.8989 Q1070.5625,67.2114 1069.7656,67.3676 Q1068.9844,67.5239 1068.2188,67.5239 Z " fill="#000000"/><text fill="#000000" font-family="sans-serif" font-size="14" lengthAdjust="spacing" textLength="104" x="1089.25" y="66.034">ScenarioLoader</text><line style="stroke:#181818;stroke-width:0.5;" x1="979.5" x2="1270.5" y1="76.602" y2="76.602"/><ellipse cx="989.5" cy="91.6359" fill="none" rx="3" ry="3" style="stroke:#038048;stroke-width:1.0;"/><text fill="#000000" font-family="sans-serif" font-size="14" lengthAdjust="spacing" textLength="204" x="998.5" y="95.5679">ground_truths : GroundTruths</text><ellipse cx="989.5" cy="110.7039" fill="none" rx="3" ry="3" style="stroke:#038048;stroke-width:1.0;"/><text fill="#000000" font-family="sans-serif" font-size="14" lengthAdjust="spacing" textLength="214" x="998.5" y="114.6358">measurements : Measurements</text><ellipse cx="989.5" cy="129.7718" fill="none" rx="3" ry="3" style="stroke:#038048;stroke-width:1.0;"/><text fill="#000000" font-family="sans-serif" font-size="14" lengthAdjust="spacing" textLength="222" x="998.5" y="133.7038">vessel_positions : VesselPositions</text><ellipse cx="989.5" cy="148.8397" fill="none" rx="3" ry="3" style="stroke:#038048;stroke-width:1.0;"/><text fill="#000000" font-family="sans-serif" font-size="14" lengthAdjust="spacing" textLength="206" x="998.5" y="152.7717">camera_config : CameraConfig</text><ellipse cx="989.5" cy="167.9076" fill="none" rx="3" ry="3" style="stroke:#038048;stroke-width:1.0;"/><text fill="#000000" font-family="sans-serif" font-size="14" lengthAdjust="spacing" textLength="181" x="998.5" y="171.8396">radar_config : RadarConfig</text><ellipse cx="989.5" cy="186.9755" fill="none" rx="3" ry="3" style="stroke:#038048;stroke-width:1.0;"/><text fill="#000000" font-family="sans-serif" font-size="14" lengthAdjust="spacing" textLength="145" x="998.5" y="190.9075">ais_config : AISConfig</text><ellipse cx="989.5" cy="206.0434" fill="none" rx="3" ry="3" style="stroke:#038048;stroke-width:1.0;"/><text fill="#000000" font-family="sans-serif" font-size="14" lengthAdjust="spacing" textLength="173" x="998.5" y="209.9754">gnss_config : GNSSConfig</text><line style="stroke:#181818;stroke-width:0.5;" x1="979.5" x2="1270.5" y1="218.0774" y2="218.0774"/><ellipse cx="989.5" cy="233.1114" fill="#84BE84" rx="3" ry="3" style="stroke:#038048;stroke-width:1.0;"/><text fill="#000000" font-family="sans-serif" font-size="14" lengthAdjust="spacing" textLength="267" x="998.5" y="237.0433">load_scenarios(scenario_path: str) : void</text></g><!--SRC=[pLLBYzim4BxxLuWzjQJqqAEXXx8Boy9sjpIbbn34n58SKLioacneI_zxHmzRyYFfjJx4yUYRXsRcc-cW-W4r9tVxYalGGZs0XJloko3uL0qOG_PS6gNlbJoBslYJdGO6kYHVtIiSE6a5BTTGadl_Jd8GfYIVdlP9Kak3eiUN_IZxKnJ1sQDMlMJVT6yl9aPHUn6rNbQI1r7PWv3sNOuzRbe8mLhHSceij5r9peq2wuGTbKhRIqcOwayD3o8EnkQIOGqQvg39wtTk36- -A2EiK384lkbvq_VQ-nN39bhknk-IF0jZ3tDKbesiH24Rg4abPp6WmuTZgAUiEMsp_9pLG1clIuAP3WZBwULNXZ2YRe7gcLQGTHSHT5EsMVRHG7jYGCymogPWyyQv4Ur9QOwUBdRXvJ-vnTJf8rUMKM4mN0_GKBDsYlTjDrsc_fvO4-nlAovkYjfSzctayXFpgfx5-0wynJz8LFnrv4pkzgBj6t1TzThRhhUekJDnLb29cguVIKcCrSMEMKVJ82Bnm0T0ba-nivHBDfDTmo8udm4ZE0q2sRsNU1KDFuzhE7Kin4mdqCfwYzJhDM-vj6QqxcdrEHqS4tpmPACJ1ntyXlK8zs6Crg_1CRU-GhIAutQwATbwKfcoIB52qOXWMN6S_rMk2s6mXHl3AJIWiO5EIZM51LrpczGTUs8RJ-gldRixD0TlvqW-aXSbUN7Ys1YofjXRjs1-0FxRcXk94-ewR2iBu_QO5NUZhAYCwjro3JuhO5ml5k7iB1vv7xCLXN7cMooXPcrMpe9De5LpbSiLaB21kB5No6hnHfIdUGBDbtR48FCJ8b_LumLn9YH0jhWJ12l2w3WPp9jfHdJWLXrsu5lK79HWNiLdlVWB]--></g></svg>